<svg width="90" height="200" xmlns="http://www.w3.org/2000/svg" xmlns:svg="http://www.w3.org/2000/svg">
 <!-- Created with SVG-edit - https://github.com/SVG-Edit/svgedit-->
 <g class="layer">
  <title>Layer 1</title>
  <ellipse cx="45.57143" cy="154.78571" fill="#007fff" id="svg_28" rx="42" ry="42.5" stroke="#000000" stroke-width="3"/>
  <path d="m42.42857,10.85714c13,-2 28,29 7.57143,24.14286c-20.42857,-4.85714 -19.57143,-22.14286 -20,-23c-0.42857,-0.85714 12.42857,-1.14286 12.42857,-1.14286z" fill="#7f3f00" id="svg_2" stroke="#000000" stroke-width="3" transform="rotate(49.8499 45.013 23.141)"/>
  <ellipse cx="58.42857" cy="12.85714" fill="#7f7f7f" id="svg_3" rx="4" ry="3" stroke="#000000"/>
  <ellipse cx="59.92857" cy="22.85714" fill="#7f7f7f" id="svg_4" rx="4" ry="3" stroke="#000000"/>
  <ellipse cx="57.92857" cy="31.85714" fill="#7f7f7f" id="svg_5" rx="4" ry="3" stroke="#000000"/>
  <ellipse cx="32.92857" cy="30.85714" fill="#7f7f7f" id="svg_6" rx="4" ry="3" stroke="#000000"/>
  <ellipse cx="31.92857" cy="21.85714" fill="#7f7f7f" id="svg_7" rx="4" ry="3" stroke="#000000"/>
  <ellipse cx="32.92857" cy="12.85714" fill="#7f7f7f" id="svg_8" rx="4" ry="3" stroke="#000000"/>
  <ellipse cx="42.42856" cy="13.85715" fill="#7f7f7f" id="svg_9" rx="1.5" ry="1" stroke="#000000"/>
  <ellipse cx="47.92856" cy="13.85715" fill="#7f7f7f" id="svg_10" rx="1.5" ry="1" stroke="#000000"/>
  <ellipse cx="42.92856" cy="21.85715" fill="#7f7f7f" id="svg_11" rx="1.5" ry="1" stroke="#000000"/>
  <ellipse cx="48.92856" cy="21.85715" fill="#7f7f7f" id="svg_12" rx="1.5" ry="1" stroke="#000000"/>
  <ellipse cx="42.92856" cy="28.85715" fill="#7f7f7f" id="svg_13" rx="1.5" ry="1" stroke="#000000"/>
  <ellipse cx="49.92856" cy="28.85715" fill="#7f7f7f" id="svg_14" rx="1.5" ry="1" stroke="#000000"/>
  <rect fill="#7f3f00" height="81" id="svg_1" stroke="#000000" stroke-width="3" width="11" x="41.42858" y="40.85714"/>
  <rect fill="#7f3f00" height="6" id="svg_19" stroke="#000000" stroke-width="3" width="19" x="35.57143" y="176.28571"/>
  <line fill="none" id="svg_21" stroke="#000000" x1="45.57143" x2="45.57143" y1="17.28572" y2="182.28571"/>
  <line fill="none" id="svg_24" stroke="#000000" x1="48.07143" x2="48.07143" y1="16.78571" y2="181.7857"/>
  <line fill="none" id="svg_25" stroke="#000000" x1="43.07143" x2="43.07143" y1="15.78571" y2="180.7857"/>
  <line fill="none" id="svg_26" stroke="#000000" x1="50.07143" x2="50.07143" y1="19.78571" y2="181.7857"/>
  <line fill="none" id="svg_27" stroke="#000000" x1="41.07143" x2="41.07143" y1="17.78571" y2="182.7857"/>
  <ellipse cx="46.2" cy="151.9" fill="#000000" id="svg_15" rx="10" ry="9.5" stroke="#000000" stroke-width="3"/>
  <path d="m67.72019,184.3127c23.82329,0.70467 34.03327,-4.22802 9.72379,-22.04608c-24.30948,-17.81806 -23.3371,6.54335 -23.82329,6.34202c-0.48619,-0.20133 -9.72379,14.99938 14.0995,15.70405l0,0.00001z" fill="#00ff00" id="svg_31" stroke="#000000" stroke-width="3" transform="rotate(85.8395 71.4206 170.061)"/>
  <path d="m29.12449,159.98146c12.62356,6.62975 36.38557,1.24308 27.79306,-9.64866c-8.59251,-10.89174 -27.05049,15.44969 -51.23682,11.18771c-24.18632,-4.26198 -19.62487,-14.3842 28.21738,-17.81746" fill="#00ff00" id="svg_30" stroke="#000000" stroke-width="3" transform="rotate(91.1166 25.053 153.291)"/>
  <path d="m64.57143,121.28571c10,-6 13,7 1.42857,10.71429c-11.57143,3.71429 -10.42857,-9.71429 -9.42857,-9.71429c1,0 8,-1 8,-1z" fill="#00ff00" id="svg_32" stroke="#000000" stroke-width="3" transform="rotate(-86.3888 64.719 126.188)"/>
  <line fill="none" id="svg_33" stroke="#000000" x1="42.57143" x2="52.57143" y1="49.28571" y2="49.28571"/>
  <line fill="none" id="svg_34" stroke="#000000" x1="42.07143" x2="52.07143" y1="59.28571" y2="59.28571"/>
  <line fill="none" id="svg_35" stroke="#000000" x1="41.07143" x2="51.07143" y1="70.28571" y2="70.28571"/>
  <line fill="none" id="svg_36" stroke="#000000" x1="41.07143" x2="51.07143" y1="80.28571" y2="80.28571"/>
  <line fill="none" id="svg_37" stroke="#000000" x1="41.07143" x2="51.07143" y1="88.28571" y2="88.28571"/>
  <line fill="none" id="svg_38" stroke="#000000" x1="42.07143" x2="52.07143" y1="98.28571" y2="98.28571"/>
  <line fill="none" id="svg_39" stroke="#000000" x1="41.07143" x2="51.07143" y1="106.28571" y2="106.28571"/>
  <line fill="none" id="svg_40" stroke="#000000" x1="42.07143" x2="52.07143" y1="116.28571" y2="116.28571"/>
 </g>
</svg>