<svg width="640" height="480" xmlns="http://www.w3.org/2000/svg" xmlns:svg="http://www.w3.org/2000/svg">
 <!-- Created with SVG-edit - https://github.com/SVG-Edit/svgedit-->
 <g class="layer">
  <title>Layer 1</title>
  <rect fill="#5faaf4" height="213.54441" id="svg_16" opacity="0.45" stroke="#000000" transform="rotate(-3.90121 319.507 84.0744)" width="666.11395" x="-13.55048" y="-22.69778"/>
  <rect fill="#ffffff" height="130.79646" id="svg_29" stroke="#000000" transform="rotate(-3.60948 318.806 110.037)" width="640.48391" x="-1.43619" y="44.63924"/>
  <rect fill="#7f3f00" height="328.1805" id="svg_19" stroke="#000000" transform="rotate(-3.93874 365.753 337.84)" width="742.31977" x="-5.40692" y="173.74972"/>
  <path d="m180,119c149,69 -2,273 -2,273c0,0 96,-111 143,-71c47,40 -175,-218 -175,-218c0,0 34,16 34,16z" fill="#7fff00" id="svg_8" stroke="#000000" transform="rotate(19.4394 236.767 247.5)"/>
  <ellipse cx="185" cy="63" fill="#7fff00" id="svg_9" rx="24" ry="22" stroke="#000000"/>
  <path d="m284,82c60,17 71,35 71,35c0,0 -131,-51 -131,-51c0,0 60,16 60,16z" fill="#7fff00" id="svg_10" stroke="#000000" transform="rotate(-26.8008 289.5 91.5)"/>
  <path d="m147.50003,140.8575c60,17 71,35 71,35c0,0 -131,-51 -131,-51c0,0 60,16 60,16z" fill="#7fff00" id="svg_11" stroke="#000000" transform="rotate(115.957 153 150.357)"/>
  <path d="m511.1744,110.74262c0,75.18136 24.4765,242.54938 41.42177,228.22912c16.94527,-14.32026 -18.82808,-276.56 -65.89828,-287.30019c-47.0702,-10.74019 124.26532,281.93009 141.21059,282.82511c16.94527,0.89502 -116.73409,-298.9354 -116.73409,-223.75404l0.00001,0z" fill="#0000ff" id="svg_12" stroke="#000000" transform="rotate(0.757708 553.969 195.609)"/>
  <ellipse cx="477" cy="27" fill="#0000ff" id="svg_13" rx="23" ry="24" stroke="#000000"/>
  <path d="m401.50003,69.8575c60,17 71,35 71,35c0,0 -131,-51 -131,-51c0,0 60,16 60,16z" fill="#0000ff" id="svg_14" stroke="#000000" transform="rotate(152.642 407 79.3575)"/>
  <line fill="none" id="svg_20" stroke="#000000" transform="rotate(9.24611 67.5 369.5)" x1="4.75206" x2="130.24794" y1="237.90148" y2="501.09853"/>
  <line fill="none" id="svg_21" stroke="#000000" transform="rotate(11.9083 141.5 272.5)" x1="111.59892" x2="171.40108" y1="217.23669" y2="327.76332"/>
  <line fill="none" id="svg_22" stroke="#000000" transform="rotate(3.60847 211.5 239.5)" x1="197" x2="226" y1="207" y2="272"/>
  <line fill="none" id="svg_23" stroke="#000000" x1="298" x2="418" y1="192" y2="502.00002"/>
  <line fill="none" id="svg_24" stroke="#000000" x1="389" x2="538" y1="193" y2="504.99999"/>
  <line fill="none" id="svg_25" stroke="#000000" x1="246" x2="313" y1="329" y2="508"/>
  <line fill="none" id="svg_26" stroke="#000000" transform="rotate(6.27433 186.5 432.5)" x1="155" x2="218" y1="355" y2="509.99999"/>
  <line fill="none" id="svg_28" stroke="#000000" x1="555" x2="660" y1="297" y2="494"/>
  <line fill="none" id="svg_27" stroke="#000000" x1="492" x2="519" y1="183" y2="227"/>
  <ellipse cx="65" cy="76" fill="#7f7f7f" id="svg_30" rx="6" ry="6" stroke="#000000" stroke-width="0"/>
  <ellipse cx="11" cy="71" fill="#bfbfbf" id="svg_31" rx="0" ry="3" stroke="#000000"/>
  <ellipse cx="25" cy="73" fill="#7f7f7f" id="svg_32" rx="6" ry="6" stroke="#000000" stroke-width="0"/>
  <ellipse cx="246" cy="118" fill="#7f7f7f" id="svg_33" rx="6" ry="6" stroke="#000000" stroke-width="0"/>
  <ellipse cx="181" cy="101" fill="#7f7f7f" id="svg_34" rx="6" ry="6" stroke="#000000" stroke-width="0"/>
  <ellipse cx="84" cy="118" fill="#7f7f7f" id="svg_35" rx="6" ry="6" stroke="#000000" stroke-width="0"/>
  <ellipse cx="49" cy="109" fill="#7f7f7f" id="svg_36" rx="6" ry="6" stroke="#000000" stroke-width="0"/>
  <ellipse cx="117" cy="100" fill="#7f7f7f" id="svg_37" rx="6" ry="6" stroke="#000000" stroke-width="0"/>
  <ellipse cx="119" cy="67" fill="#7f7f7f" id="svg_38" rx="6" ry="6" stroke="#000000" stroke-width="0"/>
  <ellipse cx="289" cy="102" fill="#7f7f7f" id="svg_39" rx="6" ry="6" stroke="#000000" stroke-width="0"/>
  <ellipse cx="93" cy="64" fill="#7f7f7f" id="svg_40" rx="6" ry="6" stroke="#000000" stroke-width="0"/>
  <ellipse cx="98" cy="133" fill="#7f7f7f" id="svg_41" rx="6" ry="6" stroke="#000000" stroke-width="0"/>
  <ellipse cx="65" cy="153" fill="#7f7f7f" id="svg_42" rx="6" ry="6" stroke="#000000" stroke-width="0"/>
  <ellipse cx="125" cy="124" fill="#7f7f7f" id="svg_43" rx="6" ry="6" stroke="#000000" stroke-width="0"/>
  <ellipse cx="163" cy="114" fill="#7f7f7f" id="svg_44" rx="6" ry="6" stroke="#000000" stroke-width="0"/>
  <ellipse cx="108" cy="107" fill="#7f7f7f" id="svg_45" rx="6" ry="6" stroke="#000000" stroke-width="0"/>
  <ellipse cx="85" cy="93" fill="#7f7f7f" id="svg_46" rx="6" ry="6" stroke="#000000" stroke-width="0"/>
  <ellipse cx="227" cy="89" fill="#7f7f7f" id="svg_47" rx="6" ry="6" stroke="#000000" stroke-width="0"/>
  <ellipse cx="51" cy="96" fill="#7f7f7f" id="svg_49" rx="6" ry="6" stroke="#000000" stroke-width="0"/>
  <ellipse cx="28" cy="89" fill="#7f7f7f" id="svg_50" rx="6" ry="6" stroke="#000000" stroke-width="0"/>
  <ellipse cx="34" cy="145" fill="#7f7f7f" id="svg_51" rx="6" ry="6" stroke="#000000" stroke-width="0"/>
  <ellipse cx="103" cy="170" fill="#7f7f7f" id="svg_52" rx="6" ry="6" stroke="#000000" stroke-width="0"/>
  <ellipse cx="55" cy="177" fill="#7f7f7f" id="svg_53" rx="6" ry="6" stroke="#000000" stroke-width="0"/>
  <ellipse cx="59" cy="119" fill="#7f7f7f" id="svg_54" rx="6" ry="6" stroke="#000000" stroke-width="0"/>
  <ellipse cx="33" cy="124" fill="#7f7f7f" id="svg_55" rx="6" ry="6" stroke="#000000" stroke-width="0"/>
  <ellipse cx="16" cy="143" fill="#7f7f7f" id="svg_56" rx="6" ry="6" stroke="#000000" stroke-width="0"/>
  <ellipse cx="19" cy="169" fill="#7f7f7f" id="svg_57" rx="6" ry="6" stroke="#000000" stroke-width="0"/>
  <ellipse cx="75" cy="179" fill="#7f7f7f" id="svg_58" rx="6" ry="6" stroke="#000000" stroke-width="0"/>
  <ellipse cx="82" cy="166" fill="#7f7f7f" id="svg_59" rx="6" ry="6" stroke="#000000" stroke-width="0"/>
  <ellipse cx="89" cy="180" fill="#7f7f7f" id="svg_60" rx="6" ry="6" stroke="#000000" stroke-width="0"/>
  <ellipse cx="100" cy="183" fill="#7f7f7f" id="svg_61" rx="6" ry="6" stroke="#000000" stroke-width="0"/>
  <ellipse cx="185" cy="168" fill="#7f7f7f" id="svg_62" rx="6" ry="6" stroke="#000000" stroke-width="0"/>
  <ellipse cx="209" cy="161" fill="#7f7f7f" id="svg_63" rx="6" ry="6" stroke="#000000" stroke-width="0"/>
  <ellipse cx="196" cy="134" fill="#7f7f7f" id="svg_64" rx="6" ry="6" stroke="#000000" stroke-width="0"/>
  <ellipse cx="230" cy="73" fill="#7f7f7f" id="svg_65" rx="6" ry="6" stroke="#000000" stroke-width="0"/>
  <ellipse cx="256" cy="80" fill="#7f7f7f" id="svg_66" rx="6" ry="6" stroke="#000000" stroke-width="0"/>
  <ellipse cx="319" cy="168" fill="#bfbfbf" id="svg_67" rx="6" ry="6" stroke="#000000" stroke-width="0"/>
  <ellipse cx="335" cy="156" fill="#7f7f7f" id="svg_68" rx="6" ry="6" stroke="#000000" stroke-width="0"/>
  <ellipse cx="359" cy="115" fill="#7f7f7f" id="svg_69" rx="6" ry="6" stroke="#000000" stroke-width="0"/>
  <ellipse cx="274" cy="162" fill="#7f7f7f" id="svg_70" rx="6" ry="6" stroke="#000000" stroke-width="0"/>
  <ellipse cx="290" cy="156" fill="#7f7f7f" id="svg_71" rx="6" ry="6" stroke="#000000" stroke-width="0"/>
  <ellipse cx="345" cy="146" fill="#7f7f7f" id="svg_72" rx="6" ry="6" stroke="#000000" stroke-width="0"/>
  <ellipse cx="384" cy="148" fill="#7f7f7f" id="svg_73" rx="6" ry="6" stroke="#000000" stroke-width="0"/>
  <ellipse cx="306" cy="149" fill="#7f7f7f" id="svg_74" rx="6" ry="6" stroke="#000000" stroke-width="0"/>
  <ellipse cx="366" cy="140" fill="#7f7f7f" id="svg_75" rx="6" ry="6" stroke="#000000" stroke-width="0"/>
  <ellipse cx="277" cy="128" fill="#7f7f7f" id="svg_76" rx="6" ry="6" stroke="#000000" stroke-width="0"/>
  <ellipse cx="320" cy="123" fill="#7f7f7f" id="svg_77" rx="6" ry="6" stroke="#000000" stroke-width="0"/>
  <ellipse cx="285" cy="66" fill="#7f7f7f" id="svg_78" rx="6" ry="6" stroke="#000000" stroke-width="0"/>
  <ellipse cx="521" cy="55" fill="#7f7f7f" id="svg_79" rx="6" ry="6" stroke="#000000" stroke-width="0"/>
  <ellipse cx="432" cy="57" fill="#7f7f7f" id="svg_80" rx="6" ry="6" stroke="#000000" stroke-width="0"/>
  <ellipse cx="447" cy="96" fill="#7f7f7f" id="svg_81" rx="6" ry="6" stroke="#000000" stroke-width="0"/>
  <ellipse cx="576" cy="114" fill="#7f7f7f" id="svg_82" rx="6" ry="6" stroke="#000000" stroke-width="0"/>
  <ellipse cx="596" cy="130" fill="#7f7f7f" id="svg_83" rx="6" ry="6" stroke="#000000" stroke-width="0"/>
  <ellipse cx="564" cy="151" fill="#7f7f7f" id="svg_84" rx="6" ry="6" stroke="#000000" stroke-width="0"/>
  <ellipse cx="363" cy="161" fill="#7f7f7f" id="svg_85" rx="6" ry="6" stroke="#000000" stroke-width="0"/>
  <ellipse cx="402" cy="155" fill="#7f7f7f" id="svg_86" rx="6" ry="6" stroke="#000000" stroke-width="0"/>
  <ellipse cx="436" cy="155" fill="#7f7f7f" id="svg_87" rx="6" ry="6" stroke="#000000" stroke-width="0"/>
  <ellipse cx="492" cy="150" fill="#7f7f7f" id="svg_88" rx="6" ry="6" stroke="#000000" stroke-width="0"/>
  <ellipse cx="313" cy="56" fill="#7f7f7f" id="svg_89" rx="6" ry="6" stroke="#000000" stroke-width="0"/>
  <ellipse cx="336" cy="54" fill="#7f7f7f" id="svg_90" rx="6" ry="6" stroke="#000000" stroke-width="0"/>
  <ellipse cx="396" cy="70" fill="#7f7f7f" id="svg_91" rx="6" ry="6" stroke="#000000" stroke-width="0"/>
  <ellipse cx="366" cy="60" fill="#7f7f7f" id="svg_92" rx="6" ry="6" stroke="#000000" stroke-width="0"/>
  <ellipse cx="549" cy="60" fill="#7f7f7f" id="svg_93" rx="6" ry="6" stroke="#000000" stroke-width="0"/>
  <ellipse cx="598" cy="59" fill="#7f7f7f" id="svg_94" rx="6" ry="6" stroke="#000000" stroke-width="0"/>
  <ellipse cx="595" cy="85" fill="#7f7f7f" id="svg_95" rx="6" ry="6" stroke="#000000" stroke-width="0"/>
  <ellipse cx="464" cy="109" fill="#7f7f7f" id="svg_96" rx="6" ry="6" stroke="#000000" stroke-width="0"/>
  <ellipse cx="462" cy="133" fill="#7f7f7f" id="svg_97" rx="6" ry="6" stroke="#000000" stroke-width="0"/>
  <ellipse cx="416" cy="138" fill="#7f7f7f" id="svg_98" rx="6" ry="6" stroke="#000000" stroke-width="0"/>
  <ellipse cx="393" cy="117" fill="#7f7f7f" id="svg_99" rx="6" ry="6" stroke="#000000" stroke-width="0"/>
  <ellipse cx="427" cy="115" fill="#7f7f7f" id="svg_100" rx="6" ry="6" stroke="#000000" stroke-width="0"/>
  <ellipse cx="575" cy="70" fill="#7f7f7f" id="svg_101" rx="6" ry="6" stroke="#000000" stroke-width="0"/>
  <ellipse cx="572" cy="46" fill="#7f7f7f" id="svg_102" rx="6" ry="6" stroke="#000000" stroke-width="0"/>
  <ellipse cx="602" cy="108" fill="#7f7f7f" id="svg_103" rx="6" ry="6" stroke="#000000" stroke-width="0"/>
  <ellipse cx="551" cy="92" fill="#7f7f7f" id="svg_104" rx="6" ry="6" stroke="#000000" stroke-width="0"/>
  <ellipse cx="379" cy="105" fill="#7f7f7f" id="svg_105" rx="6" ry="6" stroke="#000000" stroke-width="0"/>
  <ellipse cx="415" cy="108" fill="#7f7f7f" id="svg_106" rx="6" ry="6" stroke="#000000" stroke-width="0"/>
  <ellipse cx="404" cy="129" fill="#7f7f7f" id="svg_107" rx="6" ry="6" stroke="#000000" stroke-width="0"/>
  <ellipse cx="446" cy="126" fill="#7f7f7f" id="svg_108" rx="6" ry="6" stroke="#000000" stroke-width="0"/>
  <ellipse cx="441" cy="140" fill="#7f7f7f" id="svg_109" rx="6" ry="6" stroke="#000000" stroke-width="0"/>
  <ellipse cx="462" cy="159" fill="#7f7f7f" id="svg_110" rx="6" ry="6" stroke="#000000" stroke-width="0"/>
  <ellipse cx="472" cy="90" fill="#7f7f7f" id="svg_111" rx="6" ry="6" stroke="#000000" stroke-width="0"/>
  <ellipse cx="489" cy="123" fill="#7f7f7f" id="svg_112" rx="6" ry="6" stroke="#000000" stroke-width="0"/>
  <ellipse cx="138" cy="94" fill="#7f7f7f" id="svg_113" rx="6" ry="6" stroke="#000000" stroke-width="0"/>
  <ellipse cx="380" cy="132" fill="#7f7f7f" id="svg_114" rx="6" ry="6" stroke="#000000" stroke-width="0"/>
  <ellipse cx="113" cy="152" fill="#7f7f7f" id="svg_115" rx="6" ry="6" stroke="#000000" stroke-width="0"/>
  <ellipse cx="142" cy="149" fill="#7f7f7f" id="svg_116" rx="6" ry="6" stroke="#000000" stroke-width="0"/>
  <ellipse cx="161" cy="169" fill="#7f7f7f" id="svg_117" rx="6" ry="6" stroke="#000000" stroke-width="0"/>
  <ellipse cx="318" cy="104" fill="#7f7f7f" id="svg_118" rx="6" ry="6" stroke="#000000" stroke-width="0"/>
  <ellipse cx="296" cy="121" fill="#7f7f7f" id="svg_119" rx="6" ry="6" stroke="#000000" stroke-width="0"/>
  <ellipse cx="334" cy="118" fill="#7f7f7f" id="svg_120" rx="6" ry="6" stroke="#000000" stroke-width="0"/>
  <ellipse cx="624" cy="121" fill="#7f7f7f" id="svg_121" rx="6" ry="6" stroke="#000000" stroke-width="0"/>
  <ellipse cx="267" cy="142" fill="#7f7f7f" id="svg_122" rx="6" ry="6" stroke="#000000" stroke-width="0"/>
  <ellipse cx="543" cy="40" fill="#7f7f7f" id="svg_123" rx="6" ry="6" stroke="#000000" stroke-width="0"/>
  <ellipse cx="464" cy="61" fill="#7f7f7f" id="svg_124" rx="6" ry="6" stroke="#000000" stroke-width="0"/>
  <ellipse cx="420" cy="72" fill="#7f7f7f" id="svg_125" rx="6" ry="6" stroke="#000000" stroke-width="0"/>
  <ellipse cx="540" cy="76" fill="#7f7f7f" id="svg_126" rx="6" ry="6" stroke="#000000" stroke-width="0"/>
  <ellipse cx="41" cy="166" fill="#7f7f7f" id="svg_127" rx="6" ry="6" stroke="#000000" stroke-width="0"/>
  <ellipse cx="607" cy="144" fill="#7f7f7f" id="svg_128" rx="6" ry="6" stroke="#000000" stroke-width="0"/>
  <ellipse cx="582" cy="92" fill="#7f7f7f" id="svg_129" rx="6" ry="6" stroke="#000000" stroke-width="0"/>
  <ellipse cx="618" cy="74" fill="#7f7f7f" id="svg_130" rx="6" ry="6" stroke="#000000" stroke-width="0"/>
  <ellipse cx="262" cy="62" fill="#bfbfbf" id="svg_132" rx="6" ry="6" stroke="#000000" stroke-width="0"/>
  <ellipse cx="201" cy="171" fill="#bfbfbf" id="svg_133" rx="6" ry="6" stroke="#000000" stroke-width="0"/>
  <ellipse cx="290" cy="171" fill="#bfbfbf" id="svg_134" rx="6" ry="6" stroke="#000000" stroke-width="0"/>
  <ellipse cx="194" cy="155" fill="#bfbfbf" id="svg_135" rx="6" ry="6" stroke="#000000" stroke-width="0"/>
  <ellipse cx="332" cy="143" fill="#bfbfbf" id="svg_136" rx="6" ry="6" stroke="#000000" stroke-width="0"/>
  <ellipse cx="348" cy="71" fill="#bfbfbf" id="svg_137" rx="6" ry="6" stroke="#000000" stroke-width="0"/>
  <ellipse cx="308" cy="70" fill="#bfbfbf" id="svg_138" rx="6" ry="6" stroke="#000000" stroke-width="0"/>
  <ellipse cx="375" cy="73" fill="#bfbfbf" id="svg_139" rx="6" ry="6" stroke="#000000" stroke-width="0"/>
  <ellipse cx="145" cy="75" fill="#bfbfbf" id="svg_140" rx="6" ry="6" stroke="#000000" stroke-width="0"/>
  <ellipse cx="400" cy="103" fill="#bfbfbf" id="svg_141" rx="6" ry="6" stroke="#000000" stroke-width="0"/>
  <ellipse cx="32" cy="107" fill="#bfbfbf" id="svg_142" rx="6" ry="6" stroke="#000000" stroke-width="0"/>
  <ellipse cx="18" cy="126" fill="#bfbfbf" id="svg_143" rx="6" ry="6" stroke="#000000" stroke-width="0"/>
  <ellipse cx="16" cy="108" fill="#bfbfbf" id="svg_144" rx="6" ry="6" stroke="#000000" stroke-width="0"/>
  <ellipse cx="129" cy="160" fill="#bfbfbf" id="svg_145" rx="6" ry="6" stroke="#000000" stroke-width="0"/>
  <ellipse cx="143" cy="121" fill="#bfbfbf" id="svg_146" rx="6" ry="6" stroke="#000000" stroke-width="0"/>
  <ellipse cx="319" cy="140" fill="#bfbfbf" id="svg_147" rx="6" ry="6" stroke="#000000" stroke-width="0"/>
  <ellipse cx="265" cy="110" fill="#bfbfbf" id="svg_148" rx="6" ry="6" stroke="#000000" stroke-width="0"/>
  <ellipse cx="162" cy="96" fill="#bfbfbf" id="svg_149" rx="6" ry="6" stroke="#000000" stroke-width="0"/>
  <ellipse cx="399" cy="54" fill="#bfbfbf" id="svg_150" rx="6" ry="6" stroke="#000000" stroke-width="0"/>
  <ellipse cx="292" cy="138" fill="#bfbfbf" id="svg_151" rx="6" ry="6" stroke="#000000" stroke-width="0"/>
  <ellipse cx="560" cy="106" fill="#bfbfbf" id="svg_152" rx="6" ry="6" stroke="#000000" stroke-width="0"/>
  <ellipse cx="96" cy="155" fill="#bfbfbf" id="svg_153" rx="6" ry="6" stroke="#000000" stroke-width="0"/>
  <ellipse cx="176" cy="153" fill="#bfbfbf" id="svg_154" rx="6" ry="6" stroke="#000000" stroke-width="0"/>
  <ellipse cx="345" cy="105" fill="#bfbfbf" id="svg_155" rx="6" ry="6" stroke="#000000" stroke-width="0"/>
  <ellipse cx="104" cy="88" fill="#bfbfbf" id="svg_156" rx="6" ry="6" stroke="#000000" stroke-width="0"/>
  <ellipse cx="413" cy="59" fill="#bfbfbf" id="svg_157" rx="6" ry="6" stroke="#000000" stroke-width="0"/>
  <ellipse cx="242" cy="81" fill="#bfbfbf" id="svg_158" rx="6" ry="6" stroke="#000000" stroke-width="0"/>
  <ellipse cx="160" cy="133" fill="#bfbfbf" id="svg_159" rx="6" ry="6" stroke="#000000" stroke-width="0"/>
  <ellipse cx="262" cy="127" fill="#bfbfbf" id="svg_160" rx="6" ry="6" stroke="#000000" stroke-width="0"/>
  <ellipse cx="419" cy="154" fill="#bfbfbf" id="svg_161" rx="6" ry="6" stroke="#000000" stroke-width="0"/>
  <ellipse cx="308" cy="132" fill="#bfbfbf" id="svg_162" rx="6" ry="6" stroke="#000000" stroke-width="0"/>
  <ellipse cx="399" cy="141" fill="#bfbfbf" id="svg_163" rx="6" ry="6" stroke="#000000" stroke-width="0"/>
  <ellipse cx="375" cy="119" fill="#bfbfbf" id="svg_164" rx="6" ry="6" stroke="#000000" stroke-width="0"/>
  <ellipse cx="358" cy="129" fill="#bfbfbf" id="svg_165" rx="6" ry="6" stroke="#000000" stroke-width="0"/>
  <ellipse cx="342" cy="130" fill="#bfbfbf" id="svg_166" rx="6" ry="6" stroke="#000000" stroke-width="0"/>
  <ellipse cx="304" cy="170" fill="#bfbfbf" id="svg_167" rx="6" ry="6" stroke="#000000" stroke-width="0"/>
  <ellipse cx="320" cy="153" fill="#bfbfbf" id="svg_168" rx="6" ry="6" stroke="#000000" stroke-width="0"/>
  <ellipse cx="416" cy="122" fill="#bfbfbf" id="svg_169" rx="6" ry="6" stroke="#000000" stroke-width="0"/>
  <ellipse cx="430" cy="131" fill="#bfbfbf" id="svg_170" rx="6" ry="6" stroke="#000000" stroke-width="0"/>
  <ellipse cx="327" cy="68" fill="#bfbfbf" id="svg_171" rx="6" ry="6" stroke="#000000" stroke-width="0"/>
  <path d="m567.50049,36.5007c60,17 71,35 71,35c0,0 -131,-51 -131,-51c0,0 60,16 60,16z" fill="#0000ff" id="svg_15" stroke="#000000" transform="rotate(-39.5596 573 46.0007)"/>
  <ellipse cx="500" cy="135" fill="#bfbfbf" id="svg_172" rx="6" ry="6" stroke="#000000" stroke-width="0"/>
  <ellipse cx="589" cy="117" fill="#bfbfbf" id="svg_173" rx="6" ry="6" stroke="#000000" stroke-width="0"/>
  <ellipse cx="617" cy="102" fill="#bfbfbf" id="svg_174" rx="6" ry="6" stroke="#000000" stroke-width="0"/>
  <ellipse cx="588" cy="74" fill="#bfbfbf" id="svg_175" rx="6" ry="6" stroke="#000000" stroke-width="0"/>
  <ellipse cx="87" cy="81" fill="#bfbfbf" id="svg_176" rx="6" ry="6" stroke="#000000" stroke-width="0"/>
  <ellipse cx="550" cy="119" fill="#bfbfbf" id="svg_177" rx="6" ry="6" stroke="#000000" stroke-width="0"/>
  <ellipse cx="561" cy="134" fill="#bfbfbf" id="svg_178" rx="6" ry="6" stroke="#000000" stroke-width="0"/>
  <ellipse cx="582" cy="147" fill="#bfbfbf" id="svg_179" rx="6" ry="6" stroke="#000000" stroke-width="0"/>
  <ellipse cx="475" cy="127" fill="#bfbfbf" id="svg_180" rx="6" ry="6" stroke="#000000" stroke-width="0"/>
  <ellipse cx="475" cy="141" fill="#bfbfbf" id="svg_181" rx="6" ry="6" stroke="#000000" stroke-width="0"/>
  <ellipse cx="453" cy="64" fill="#bfbfbf" id="svg_182" rx="6" ry="6" stroke="#000000" stroke-width="0"/>
  <ellipse cx="451" cy="110" fill="#bfbfbf" id="svg_183" rx="6" ry="6" stroke="#000000" stroke-width="0"/>
  <ellipse cx="431" cy="92" fill="#bfbfbf" id="svg_184" rx="6" ry="6" stroke="#000000" stroke-width="0"/>
  <ellipse cx="525" cy="77" fill="#bfbfbf" id="svg_185" rx="6" ry="6" stroke="#000000" stroke-width="0"/>
  <ellipse cx="78" cy="137" fill="#bfbfbf" id="svg_186" rx="6" ry="6" stroke="#000000" stroke-width="0"/>
  <ellipse cx="67" cy="141" fill="#bfbfbf" id="svg_187" rx="6" ry="6" stroke="#000000" stroke-width="0"/>
  <ellipse cx="50" cy="140" fill="#bfbfbf" id="svg_188" rx="6" ry="6" stroke="#000000" stroke-width="0"/>
  <ellipse cx="50" cy="156" fill="#bfbfbf" id="svg_189" rx="6" ry="6" stroke="#000000" stroke-width="0"/>
  <ellipse cx="56" cy="168" fill="#bfbfbf" id="svg_190" rx="6" ry="6" stroke="#000000" stroke-width="0"/>
  <ellipse cx="68" cy="165" fill="#bfbfbf" id="svg_191" rx="6" ry="6" stroke="#000000" stroke-width="0"/>
  <ellipse cx="83" cy="153" fill="#bfbfbf" id="svg_192" rx="6" ry="6" stroke="#000000" stroke-width="0"/>
  <ellipse cx="95" cy="166" fill="#bfbfbf" id="svg_193" rx="6" ry="6" stroke="#000000" stroke-width="0"/>
  <ellipse cx="90" cy="142" fill="#bfbfbf" id="svg_194" rx="6" ry="6" stroke="#000000" stroke-width="0"/>
  <ellipse cx="106" cy="122" fill="#bfbfbf" id="svg_195" rx="6" ry="6" stroke="#000000" stroke-width="0"/>
  <ellipse cx="363" cy="101" fill="#7f7f7f" id="svg_196" rx="6" ry="6" stroke="#000000" stroke-width="0"/>
  <ellipse cx="150" cy="104" fill="#7f7f7f" id="svg_197" rx="6" ry="6" stroke="#000000" stroke-width="0"/>
  <ellipse cx="621" cy="57" fill="#7f7f7f" id="svg_198" rx="6" ry="6" stroke="#000000" stroke-width="0"/>
  <ellipse cx="612" cy="133" fill="#7f7f7f" id="svg_199" rx="6" ry="6" stroke="#000000" stroke-width="0"/>
  <ellipse cx="625" cy="147" fill="#7f7f7f" id="svg_200" rx="6" ry="6" stroke="#000000" stroke-width="0"/>
  <ellipse cx="597" cy="150" fill="#7f7f7f" id="svg_201" rx="6" ry="6" stroke="#000000" stroke-width="0"/>
  <ellipse cx="609" cy="120" fill="#7f7f7f" id="svg_202" rx="6" ry="6" stroke="#000000" stroke-width="0"/>
  <ellipse cx="610" cy="92" fill="#7f7f7f" id="svg_203" rx="6" ry="6" stroke="#000000" stroke-width="0"/>
  <ellipse cx="592" cy="106" fill="#7f7f7f" id="svg_204" rx="6" ry="6" stroke="#000000" stroke-width="0"/>
  <ellipse cx="537" cy="94" fill="#7f7f7f" id="svg_205" rx="6" ry="6" stroke="#000000" stroke-width="0"/>
  <ellipse cx="560" cy="77" fill="#7f7f7f" id="svg_206" rx="6" ry="6" stroke="#000000" stroke-width="0"/>
  <ellipse cx="565" cy="88" fill="#7f7f7f" id="svg_207" rx="6" ry="6" stroke="#000000" stroke-width="0"/>
  <ellipse cx="545" cy="106" fill="#7f7f7f" id="svg_208" rx="6" ry="6" stroke="#000000" stroke-width="0"/>
  <ellipse cx="578" cy="130" fill="#7f7f7f" id="svg_209" rx="6" ry="6" stroke="#000000" stroke-width="0"/>
  <ellipse cx="385" cy="164" fill="#7f7f7f" id="svg_210" rx="6" ry="6" stroke="#000000" stroke-width="0"/>
  <ellipse cx="276" cy="80" fill="#7f7f7f" id="svg_211" rx="6" ry="6" stroke="#000000" stroke-width="0"/>
  <ellipse cx="129" cy="140" fill="#7f7f7f" id="svg_212" rx="6" ry="6" stroke="#000000" stroke-width="0"/>
  <ellipse cx="279" cy="114" fill="#7f7f7f" id="svg_213" rx="6" ry="6" stroke="#000000" stroke-width="0"/>
  <ellipse cx="304" cy="102" fill="#7f7f7f" id="svg_214" rx="6" ry="6" stroke="#000000" stroke-width="0"/>
  <ellipse cx="243" cy="64" fill="#7f7f7f" id="svg_215" rx="6" ry="6" stroke="#000000" stroke-width="0"/>
 </g>
</svg>