<svg width="640" height="480" xmlns="http://www.w3.org/2000/svg" xmlns:svg="http://www.w3.org/2000/svg" style="vector-effect: non-scaling-stroke;">
 <!-- Created with SVG-edit - https://github.com/SVG-Edit/svgedit-->
 <g class="layer">
  <title>Layer 1</title>
  <circle cx="316.97479" cy="132.43697" fill="#ffffff" id="svg_11" r="72.68771" stroke="#000000" style="vector-effect: non-scaling-stroke;"/>
  <text fill="#00ff7f" font-family="serif" font-size="24" id="svg_2" stroke="#000000" stroke-width="0" style="vector-effect: non-scaling-stroke;" text-anchor="middle" transform="matrix(1 0 0 1 0 0) matrix(1 0 0 2.68653 0 -239.513)" x="279.32773" xml:space="preserve" y="142.75318">Kevin</text>
  <text fill="#00ff7f" font-family="serif" font-size="24" id="svg_3" stroke="#000000" stroke-width="0" style="vector-effect: non-scaling-stroke;" text-anchor="middle" transform="matrix(1 0 0 1 0 0) rotate(-0.40903 355.1 121.659) matrix(1 0 0 2.6197 0 -175.963)" x="355.10536" xml:space="preserve" y="121.74715">Greene</text>
  <path d="m268.7395,232.77311c31.7647,78.82353 116.47058,-11.76471 98.31932,-46.89076c-18.15126,-35.12605 -130.08403,-31.93277 -98.31932,46.89076z" fill="#ffffff" id="svg_13" stroke="#000000" style="vector-effect: non-scaling-stroke;" transform="matrix(1 0 0 1 0 0) rotate(111.716 316.34 214.287)"/>
  <path d="m302.06843,163.69884l6.59712,0c0,0 -3.40801,-7.48863 1.66414,-7.6075c4.69396,-0.10999 4.16035,7.66694 2.67451,7.66694c-1.48584,0 -1.4264,-7.60751 2.43677,-7.60751c3.86318,0 4.45752,7.60749 2.31791,7.60749c-2.1396,0 -1.30754,-7.60749 2.49621,-7.60749c3.80375,0 4.57638,7.60751 2.19904,7.60751c-2.37734,0 -1.06981,-7.60751 2.67451,-7.60751c3.74432,0 3.26885,7.60749 2.02074,7.60749c-1.2481,0 6.35939,-0.05943 6.35939,-0.05943m-32.19034,-0.39476l0.7487,0l0,0.74871l-0.7487,0l0,-0.74871zm32.1925,0.03329l0.7487,0l0,0.74871l-0.7487,0l0,-0.74871z" fill="#00ff7f" id="svg_14" stroke="#000000" style="vector-effect: non-scaling-stroke;"/>
  <ellipse cx="351.44914" cy="175.6479" fill="#ffffff" id="svg_18" rx="15.67651" ry="7.12913" stroke="#000000" stroke-width="0" style="vector-effect: non-scaling-stroke;" transform="rotate(40.6458 351.449 175.648)"/>
  <ellipse cx="284.6218" cy="177.47889" fill="#ffffff" id="svg_20" rx="15.67651" ry="7.12913" stroke="#000000" stroke-width="0" style="vector-effect: non-scaling-stroke;" transform="rotate(-46.975 284.622 177.479)"/>
  <path d="m317.17223,164.64696zm-8.81851,-0.29537l0.39782,0l0,-0.66929l-0.39782,0l0,0.66929zm0.44061,-0.33489l16.76578,0m0.04287,0.33473l0.39782,0l0,-0.66929l-0.39782,0l0,0.66929zm-8.38614,-0.29058l-0.03948,14.05907m-0.19894,0.07208l0,0.66928l0.39783,0l0,-0.66928l-0.39783,0z" fill="#000000" id="svg_21" stroke="#000000" style="vector-effect: non-scaling-stroke;"/>
  <ellipse cx="319.91597" cy="184.53782" fill="#bfbfbf" id="svg_22" rx="41.76471" ry="4.70588" stroke="#000000" style="vector-effect: non-scaling-stroke;"/>
  <ellipse cx="319.91593" cy="192.77312" fill="#bfbfbf" id="svg_24" rx="41.17647" ry="4.70588" stroke="#000000" style="vector-effect: non-scaling-stroke;" transform="matrix(1 0 0 1 0 0)"/>
  <ellipse cx="318.15123" cy="201.00842" fill="#bfbfbf" id="svg_25" rx="42.94118" ry="4.70588" stroke="#000000" style="vector-effect: non-scaling-stroke;"/>
  <ellipse cx="318.7395" cy="208.06723" fill="#bfbfbf" id="svg_26" rx="42.94118" ry="4.70588" stroke="#000000" style="vector-effect: non-scaling-stroke;" transform="matrix(1 0 0 1 0 0)"/>
  <ellipse cx="319.91597" cy="215.12606" fill="#bfbfbf" id="svg_27" rx="42.94118" ry="4.70588" stroke="#000000" style="vector-effect: non-scaling-stroke;" transform="matrix(1 0 0 1 0 0)"/>
  <ellipse cx="319.91597" cy="221.00841" fill="#bfbfbf" id="svg_28" rx="42.94118" ry="4.70588" stroke="#000000" style="vector-effect: non-scaling-stroke;" transform="matrix(1 0 0 1 0 0)"/>
  <ellipse cx="319.91597" cy="228.06723" fill="#bfbfbf" id="svg_29" rx="42.94118" ry="4.70588" stroke="#000000" style="vector-effect: non-scaling-stroke;" transform="matrix(1 0 0 1 0 0)"/>
  <ellipse cx="322.26889" cy="237.479" fill="#bfbfbf" id="svg_30" rx="38.2353" ry="4.70588" stroke="#000000" style="vector-effect: non-scaling-stroke;"/>
  <ellipse cx="322.26889" cy="245.7143" fill="#bfbfbf" id="svg_31" rx="33.52942" ry="4.70588" stroke="#000000" style="vector-effect: non-scaling-stroke;" transform="matrix(1 0 0 1 0 0)"/>
  <circle cx="318.15126" cy="124.70587" fill="#00ff7f" id="svg_32" opacity="0.15" r="61.30774" stroke="#000000" stroke-width="0" style="vector-effect: non-scaling-stroke;"/>
  <line fill="none" id="svg_33" stroke="#000000" style="vector-effect: non-scaling-stroke;" transform="rotate(73.4956 416.975 72.7731)" x1="404.03362" x2="429.91597" y1="43.36135" y2="102.18488"/>
  <line fill="none" id="svg_34" stroke="#000000" style="vector-effect: non-scaling-stroke;" transform="rotate(-169.11 445.798 147.143)" x1="406.33146" x2="485.26484" y1="156.08303" y2="138.20311"/>
  <line fill="none" id="svg_37" stroke="#000000" style="vector-effect: non-scaling-stroke;" transform="rotate(14.9946 192.857 153.95)" x1="153.39072" x2="232.32411" y1="162.8897" y2="145.00978"/>
  <line fill="none" id="svg_38" stroke="#000000" style="vector-effect: non-scaling-stroke;" transform="rotate(148.12 210.504 72.7733)" x1="197.56287" x2="223.44522" y1="43.36156" y2="102.18508"/>
  <line fill="none" id="svg_39" stroke="#000000" style="vector-effect: non-scaling-stroke;" transform="rotate(-158.385 316.975 32.4372)" x1="309.94582" x2="324.00336" y1="15.48815" y2="49.38623"/>
  <ellipse cx="318.15124" cy="192.43698" fill="#00ff7f" id="svg_40" opacity="0.15" rx="242.35294" ry="178.4874" stroke="#000000" stroke-width="0"/>
 </g>
</svg>